<?xml version="1.0" encoding="utf-8"?>
<svg version="1.1" id="FINAL" xmlns="http://www.w3.org/2000/svg" xmlns:xlink="http://www.w3.org/1999/xlink" x="0px" y="0px"
	 width="260.088px" height="281.774px" viewBox="0 0 260.088 281.774" enable-background="new 0 0 260.088 281.774"
	 xml:space="preserve">
<g>
	<g>
		<g>
			<circle fill="#001643" cx="69.928" cy="10.905" r="2.596"/>
			<path fill="#001643" d="M44.494,108.978c0,1.361-3.012,2.463-6.736,2.463c-7.207,0-13.053,5.838-13.053,13.051
				c0,3.719-1.1,6.738-2.453,6.738s-2.453-3.02-2.453-6.738c0-7.213-5.846-13.051-13.053-13.051c-3.725,0-6.746-1.102-6.746-2.463
				c0-1.352,3.021-2.453,6.746-2.453c7.207,0,13.053-5.846,13.053-13.051c0-3.719,1.1-6.738,2.453-6.738s2.453,3.02,2.453,6.738
				c0,7.205,5.846,13.051,13.053,13.051C41.482,106.524,44.494,107.626,44.494,108.978z"/>
			<path fill="#001643" d="M44.432,61.692c0,0.773-0.914,1.398-2.045,1.398c-4.768,0-8.627,3.859-8.627,8.625
				c0,1.131-0.633,2.045-1.398,2.045c-0.773,0-1.398-0.914-1.398-2.045c0-4.766-3.859-8.625-8.625-8.625
				c-1.131,0-2.045-0.625-2.045-1.398c0-0.775,0.914-1.398,2.045-1.398c4.766,0,8.625-3.859,8.625-8.627
				c0-1.129,0.625-2.045,1.398-2.045c0.766,0,1.398,0.916,1.398,2.045c0,4.768,3.859,8.627,8.627,8.627
				C43.518,60.294,44.432,60.917,44.432,61.692z"/>
			<path fill="#001643" d="M57.941,30.933c0,0.43-0.283,0.805-0.668,0.938c0,0-0.359,0.088-0.373,0.092
				c-2.268,0.619-4.074,2.355-4.791,4.582c-0.203,0.631-0.113,0.414-0.168,0.615c-0.115,0.416-0.494,0.719-0.947,0.719
				c-0.432,0-0.799-0.277-0.93-0.664c0,0-0.164-0.605-0.17-0.619c-0.689-2.203-2.432-3.932-4.648-4.592
				c-0.164-0.049-0.066-0.025-0.408-0.104c-0.447-0.088-0.789-0.49-0.789-0.967s0.342-0.869,0.789-0.959
				c0.311-0.068,0.314-0.072,0.51-0.135c2.066-0.648,3.713-2.238,4.449-4.264c0.121-0.338,0.289-0.971,0.289-0.971
				c0.139-0.363,0.494-0.617,0.908-0.617c0.404,0,0.75,0.24,0.896,0.586c0,0,0.184,0.703,0.357,1.146
				c0.783,2.016,2.477,3.572,4.57,4.17c0.088,0.023,0.48,0.115,0.551,0.148C57.707,30.194,57.941,30.536,57.941,30.933z"/>
		</g>
		<g>
			<path fill="#FFFFFF" d="M64.047,144.112l-2.764-18.953c0,0,13.711,7.66,34.078,11.896c20.363,4.232,63.82,2.314,83.025-6.305
				c19.205-8.617,27.482-39.008,28.586-54.662c1.104-15.656,0.512-35.006-14.64-39.971c-13.227-4.332-58.74-15.59-86.226-8.887
				c-12.371,2.289-4.142-15.9,22.725-21.041C187.338-5.003,229.57,23.614,241.951,59.222c8.543,24.572,5.244,49.807-7.057,64.123
				c-12.301,14.314-43.756,31.254-74.203,34.277c-30.447,3.025-76.018-5.848-82.873-8.469
				C70.961,146.532,64.047,144.112,64.047,144.112z"/>
			<path fill="#F9B200" d="M96.711,153.427l-8.791,14.875c0,0-41.475-15.232-54.125-24.004c0,0-4.555,18.387,12.313,32.385
				l-6.24,1.857c0,0,8.602,14.563,25.977,17.148l-7.592,4.441c0,0,16.551,7.568,30.119,5.727c0,0,13.439,30.332,62.652,28.256
				c0,0-0.336-7.502,7.76-7.502s6.916,4.387,6.916,4.387s14.17-3.373,21.084-9.615c0,0,11.445,12.613,22.697,8.098l-2.51-3.373
				l14.561-4.387l-3.881-2.361l11.133-8.771l-21.813-5.686l5.832-4.436l-2.068-4.047c0,0,18.387-2.699,26.145-15.352l-4.117-2.527
				c0,0,24.359-15.52,23.516-43.521c0,0-29.686,22.52-50.939,28.717c-21.254,6.199-30.887,0.145-33.912-7.369
				c0,0-14.762,3.787-35.463,3.787C115.266,160.153,96.711,153.427,96.711,153.427z"/>
			<path fill="#EE7F00" d="M34.158,148.177c3.357,9.117,12.758,24.564,35.273,29.619c0,0-4.426,6.617-15.33,6.059
				c0,0,6.688,6.629,24.021,6.676c0,0-0.225,6.043-5.803,8.699c0,0,7.49,1.977,11.83-3.039l2.652,10.064
				c0,0-17.922,1.012-25.365-6.434l2.297-3.584c0,0-18.531-6.859-22.607-16.174l8.086-1.564c0,0-14.52-14.336-16.727-22.24
				C30.281,148.356,34.158,148.177,34.158,148.177z"/>
			<path fill="#EE7F00" d="M255.803,138.61c-0.146-5.803-2.217,0.578-2.217,0.578c-7.941,23.838-27.035,32.805-48.252,38.385
				c7.365,5.959,15.535,6.672,15.535,6.672c-11.27,6.779-34.932,1.436-34.932,1.436c3.93,5.791,7.65,9.098,7.65,9.098
				c-3.441,0.59-8.893-0.205-23.234-4.6c18.361,29.924-26.461,35.975-51.09,20.973c0.566,2.621,4.471,8.453,7.033,11.189
				c-16.121-0.203-35.549-14.24-41.328-37.725c-4.713,42.305,39.57,48.117,64.9,49.598c0.135-3.266,5.52-9.258,10.475-7.613
				c2.33,0.771,3.41,2.963,4.889,4.723c0.088,0.102,0.158,0.209,0.217,0.313c11.496-3.238,12.047-2.732,23.67-10.467
				c0,0,4.496,8.25,20.361,8.311c0,0-1.252-4.178,0-4.549c1.254-0.369,12.215-3.535,12.215-3.535l-4.045-2.037l10.533-7.105
				c-18.695-6.07-25.061-8.713-25.061-8.713l24.525-13.918c0,0,11.043-8.227,9.076-10.539c-1.969-2.311,8.703-12.736,12.785-17.311
				C253.59,157.198,255.951,144.413,255.803,138.61z"/>
			<path fill="#EE7F00" d="M173.758,155.948c-23.551,2.459-32.352,5.738-71.689,1.078c13.16,6.273,41.713,16.234,76.852,5.971
				C177.182,160.659,175.428,158.333,173.758,155.948z"/>
			<path fill="#E7511E" d="M137.365,279.757c-0.461,0-0.975-0.078-1.406-0.217c-1.07-0.342-1.965-1.061-2.523-2.033
				c-2.717-4.461-3.828-10.777-3.553-16.09l-1.037-0.623c-16.389-9.449-14.262-29.521-14.262-29.521s14.514,4.578,15.227,4.801
				c-0.406,3.363,0.322,6.813,2.09,9.695l1.621,2.645c2.92-4.23,3.463-5.324,5.047-5.324c0.244,0,0.486,0.039,0.725,0.115
				c1.523,0.484,1.611,1.752,1.803,2.883c0.229,1.34,0.615,3.191,1.609,5.664l0.348,0.867l0.021,0.006
				c1.887,4.316,4.869,8.131,8.674,11.078c2.09,1.598,3.83,2.498,5.229,3.221c1.723,0.893,3.227,1.52,2.605,3.465
				c-0.08,0.246-0.191,0.469-0.33,0.654c-0.66,0.916-4.984,3.715-6.502,4.414c-0.539,0.246-1.115,0.373-1.705,0.373
				c-0.975,0-1.943-0.359-2.658-0.98l-2.885-2.51l-0.443,3.799c-0.164,1.406-1.287,2.635-2.729,2.984
				C140.635,279.481,138.016,279.757,137.365,279.757z"/>
			<path fill="#E7511E" d="M192.08,278.771c-0.982,0-1.957-0.332-2.742-0.932l-0.066-0.051c-2.5-1.754-7.131-7.15-8.965-12.316
				l-0.404-1.139l-1.195-0.18c-10.811-1.627-21.223-10.064-25.326-20.518c-0.174-0.447-0.359-0.908-0.551-1.381
				c-1.342-3.332-2.865-7.109-2.162-10.326c0.768-3.549,3.707-6.191,7.313-6.58c0.299-0.031,0.602-0.047,0.902-0.047
				c4.229,0,7.875,3.25,8.334,7.416c0.121,4.813,3.857,12.971,8.561,16.389l2.508,1.822l0.701-3.275
				c0.523-2.477,1.029-3.605,2.65-3.75c0.076-0.008,0.16-0.01,0.244-0.01c1.24,0,1.852,0.859,2.371,1.74
				c0.057,0.098,0.107,0.182,0.15,0.25c0.639,1.027,1.721,2.643,3.648,4.613l0.594,0.607h0.021c3.41,3.295,7.648,5.699,12.309,6.977
				c2.549,0.674,4.502,0.842,6.07,0.975c1.59,0.135,2.443,0.225,2.941,0.619c0.721,0.568,0.918,1.605,0.736,2.297l-0.018,0.074
				c-0.248,1.047-3.166,5.283-4.301,6.506c-0.777,0.832-1.877,1.313-3.016,1.313c-0.432,0-0.854-0.066-1.254-0.199l-3.633-1.215
				l1.055,3.682c0.389,1.359-0.178,2.92-1.377,3.797c-2.262,1.563-4.629,2.734-5.717,2.824
				C192.332,278.763,192.205,278.771,192.08,278.771z"/>
			<polygon fill="#BDD5ED" points="244.018,106.991 243.902,105.915 219.912,104.175 220.832,118.155 			"/>
			<g>
				<path fill="#BDD5ED" d="M226.748,79.753c3.457-3.924,7.014-7.344,12.184-9.682c1.799-0.813,3.678-1.426,5.598-1.939
					c-0.691-2.967-1.547-5.943-2.578-8.91C230.943,27.558,197.777,9.347,175.07,5.147c-0.588,0.49-1.184,0.977-1.793,1.445
					C208.453,18.771,227.297,49.11,226.748,79.753z"/>
				<path fill="#BDD5ED" d="M226.023,131.612c-0.1-0.162-0.203-0.32-0.297-0.486c-3.211-5.635-6.527-11.783-7.648-18.271
					c-11.182,20.818-33.369,38.275-67.797,45.355C181.051,157.604,209.771,144.356,226.023,131.612z"/>
			</g>
			<polygon fill="#BDD5ED" points="244.211,96.489 242.182,98.216 222.971,89.911 233.244,74.851 			"/>
			<path fill="#F9B200" d="M196.76,36.862c-5.1-2.002-50.023-13.979-93.834-10.834C92.91,37.085,72.648,75.597,68.268,90.54
				c-4.381,14.945-10.146,35.832,15.023,43.529c25.168,7.697,71.646,7.301,85.895,1.457c14.25-5.84,27.395-8.135,36.367-42.867
				C212.305,66.521,207.4,41.034,196.76,36.862z M91.984,82.044c0,0,0.99-8.584,3.631-17.387
				c2.641-8.801,12.594-15.293,19.857-15.404c7.262-0.109,6.828,9.354,7.049,15.516c0.172,4.84-5.281,15.367-7.633,19.666h-2.645
				C106.793,82.374,97.906,81.679,91.984,82.044z M171.26,89.347h-4.914c-5.434-1.861-12.463-2.48-18.135-2.133
				c0,0,0.99-8.582,3.631-17.383c2.643-8.803,12.596-15.297,19.857-15.406c7.264-0.109,6.83,9.354,7.049,15.514
				C178.918,74.683,173.682,84.894,171.26,89.347z"/>
			<path fill="#EE7F00" d="M203.594,42.45c-4.527-11.129-51.945-16.49-76.092-14.59c1.024,0.051,1.903,0.113,2.579,0.188
				c14.775,1.598,29.382,4.41,43.634,8.387c8.999,2.512,20.516,3.566,23.212,27.076c3.321,28.949-10.715,62.779-47.128,73.719
				C215.092,135.093,209.927,58.028,203.594,42.45z"/>
			<g>
				<path fill="#E7511E" d="M101.389,116.36c0.701-5.189,5.188-13.947,10.375-17.674c5.189-3.73,15.727-6.811,19.24,0.92
					c3.512,7.727,0.432,13.727-2.863,16.482c-3.297,2.754-16.053,5.945-16.053,5.945l1.676-8.916c0,0-5.514-0.813-8.646,1.619
					C101.98,117.169,101.389,116.36,101.389,116.36z"/>
				
					<ellipse transform="matrix(0.5625 0.8268 -0.8268 0.5625 134.0085 -49.6646)" fill="#EE7F00" cx="113.934" cy="101.796" rx="3.451" ry="9.169"/>
			</g>
			<path fill="#FFFFFF" d="M91.984,82.044c0,0,0.99-8.584,3.631-17.387c2.641-8.801,12.594-15.293,19.857-15.404
				c7.262-0.109,6.828,9.354,7.049,15.516c0.172,4.84-5.281,15.367-7.633,19.666h-2.645C106.793,82.374,97.906,81.679,91.984,82.044
				z M171.26,89.347h-4.914c-5.434-1.861-12.463-2.48-18.135-2.133c0,0,0.99-8.582,3.631-17.383
				c2.643-8.803,12.596-15.297,19.857-15.406c7.264-0.109,6.83,9.354,7.049,15.514C178.918,74.683,173.682,84.894,171.26,89.347z"/>
			<g>
				<path fill="#001643" d="M260.012,134.022c-0.383-1.709-1.809-3.025-3.58-3.23c-2.154-0.285-3.199,1.008-5.5,2.797
					c-2.611,2.035-4.93,3.748-7.359,5.465c-1.666,1.174-3.344,2.318-5.037,3.43c-8.744,5.756-18.162,10.809-25.904,14.24
					c-4.883,2.191-9.842,4.17-14.91,5.922c-4.566,1.736-9.732,1.803-14.516-0.088c-2.838-1.115-5.482-2.949-7.58-5.289
					c15.205-3.482,29.948-8.969,43.789-16.4c9.352-5.336,17.016-12.951,22.418-21.961c4.953-8.27,7.998-17.729,8.66-27.697
					c0.5-7.723-0.594-16.688-2.52-24.182c-1.963-7.66-4.967-14.924-8.867-21.619c-7.686-13.146-18.568-23.619-30.031-30.295
					c-7.941-4.857-17.859-9.158-28.33-11.809c-28.852-7.363-60.455-2.531-83.803,15.568C87.58,26.122,80.82,34.276,74.844,44.005
					c-6.361,10.291-11.236,21.494-14.439,33.314c-5.113,18.889-5.895,39.061-1.578,59.484c1.125,5.295,1.447,5.92,1.869,6.633
					c1.055,1.734,2.559,2.262,3.332,2.609c1.371,0.621,3.217,1.426,4.041,1.768c7.464,3.185,15.374,5.878,23.36,8.006
					c-2.386,2.801-4.402,5.828-6.029,9.017c-8.965-2.601-17.888-5.928-26.435-9.905c-8.18-3.811-16.492-8.438-24.6-13.84
					c-0.625-0.377-1.391-0.613-2.18-0.613c-2.141,0-4.156,1.662-4.156,4.283c-0.041,1.156-0.002,2.906,0.158,4.604
					c0.355,3.723,1.223,7.346,2.574,10.76c2.453,6.213,5.934,10.777,10.383,14.918h-0.148c-0.389,0-1.416,0.002-2.795-0.006
					c-0.869-0.004-1.672,0.457-2.107,1.209s-0.436,1.68,0.004,2.43c0.479,0.822,0.996,1.641,1.539,2.43
					c3.217,4.689,7.402,8.609,12.262,11.514c2.504,1.502,4.854,2.543,7.436,3.451c-0.609,0.268-1.873,0.896-2.541,1.172
					c-0.615,0.258-1.045,0.828-1.121,1.492c-0.074,0.664,0.217,1.314,0.762,1.703c1.068,0.762,2.158,1.49,3.246,2.158
					c8.588,5.293,19.047,7.225,28.751,7.248c4.052,7.07,9.964,13.131,17.396,17.385c2.774,1.618,5.626,3.045,8.531,4.297
					c-0.077,0.713-0.139,1.429-0.166,2.148c-0.445,11.674,5.42,22.711,15.613,28.848c-0.188,3.631,0.611,8.744,2.574,13.303
					c0.498,1.191,1.145,2.438,1.309,2.691c0.777,1.35,2.047,2.434,3.658,2.947c0.928,0.297,1.947,0.365,2.637,0.277
					c1.74-0.121,3.604-0.396,4.822-0.658c2.35-0.568,4.006-2.563,4.258-4.711c1.695,1.475,4.248,1.959,6.529,0.918
					c1.436-0.658,6.309-3.662,7.281-5.043c0.271-0.365,0.482-0.787,0.631-1.246c0.369-1.162,0.268-2.377-0.281-3.359
					c-1.148-2.053-4.008-2.299-8.238-5.531c-3.881-3.006-6.703-6.822-8.402-11.109c-0.936-2.33-1.293-4.039-1.498-5.246
					c-0.125-0.746-0.262-3.541-3.176-4.473c-1.008-0.32-2.037-0.26-2.949,0.1c-1.205,0.463-1.926,1.289-3.338,3.334
					c-1.405-2.293-2.041-4.971-1.87-7.643c5.74,0.864,11.552,1.076,17.33,0.664c0.63,2.336,1.63,4.611,2.421,6.637
					c4.268,10.873,15.137,20.004,26.904,21.775c2.021,5.695,6.967,11.369,9.707,13.293c1.234,0.945,2.828,1.463,4.514,1.324
					c2.119-0.174,5.504-2.352,6.742-3.207c1.953-1.424,2.721-3.904,2.127-5.98c2.131,0.711,4.676,0.182,6.387-1.654
					c1.076-1.158,4.428-5.797,4.793-7.441c0.371-1.424-0.063-3.307-1.439-4.393c-1.844-1.453-4.578-0.588-9.729-1.955
					c-4.73-1.295-8.797-3.744-12.008-7.047c-1.756-1.795-2.744-3.236-3.393-4.279c-0.402-0.639-1.6-3.17-4.65-2.914
					c-3.521,0.314-4.084,3.67-4.494,5.58c-3.848-2.799-7.14-9.612-7.655-13.902c3.521-1.219,6.981-2.674,10.341-4.41
					c2.686-1.391,5.194-3.004,7.252-4.93c6.38,7.762,17.931,10.502,26.465,6.107c0.385-0.199,0.621-0.6,0.609-1.031
					c-0.012-0.434-0.271-0.82-0.668-0.998c-0.738-0.326-1.662-0.83-1.758-0.885c6.672-0.504,12.02-3.73,14.844-5.824
					c0.408-0.305,0.596-0.822,0.477-1.318c-0.117-0.494-0.52-0.871-1.021-0.955c-1.043-0.176-2.045-0.342-2.293-0.375
					c-0.008,0-0.008,0-0.014,0c2.484-1.234,5.857-4.367,8.588-7.951c0.764-0.998,0.842-2.361,0.199-3.439
					c-0.643-1.082-1.877-1.664-3.119-1.473c-6.024,0.933-12.249,0.15-17.981-2.326c2.107-0.659,4.182-1.445,6.183-2.359
					c0.619-0.283,1.021-0.895,1.033-1.574c0.014-0.68-0.363-1.307-0.969-1.613c-0.451-0.229-0.84-0.432-1.15-0.602
					c10.254-2.568,19.525-8.984,26.654-18.064c0.402-0.512,0.488-1.203,0.229-1.797c-0.262-0.596-0.83-0.998-1.477-1.049
					c-0.641-0.051-1.34-0.127-2.299-0.254c2.383-1.537,4.582-3.303,6.576-5.273c4.674-4.611,8.252-10.371,10.311-17.023
					C258.928,146.194,260.455,136.042,260.012,134.022z M242.785,71.966c0.455,2.084,0.824,4.191,1.104,6.307
					c-0.037-0.008-0.064,0-0.1,0.006c-4.15,0.256-9.551,8.637-12.512,19.77c-0.824,3.047-1.504,6.68-1.785,10.006
					c-0.605,7.209,0.598,12.652,3.408,13.691c-1.324,1.723-2.754,3.365-4.291,4.924c-7.508-5.736-6.652-21.121-4.156-30.436
					c3.445-12.939,10.889-22.617,17.912-24.182C242.508,72.015,242.65,71.987,242.785,71.966z M78.986,90.298
					c8.738-5.738,19.441-7.455,29.469-4.818c5.793,1.535,9.252,3.926,9.963,4.293c0.303,0.295,1.295,0.277,1.836-0.365
					c0.52-0.611,0.455-1.521-0.129-2.063c-0.672-0.463-1.918-1.363-3.959-2.482c2.758-4.33,5.004-9.102,6.232-12.605
					c0.008-0.014,0.014-0.027,0.014-0.047c2.262-6.385,3.105-14.648-0.07-20.305v-0.008c-2.023-3.631-5.326-5.4-8.889-5.4
					c-6.91,0-13.74,6.291-17.734,12.859c-2.748,4.402-4.313,9.158-5.545,14.498c-0.465,2.037-0.83,4.096-1.105,6.172
					c-3.672,0.551-7.387,1.625-10.893,3.197c1.608-6.959,4.878-15.365,9.51-23.787c0.003-0.006,0.006-0.01,0.009-0.016
					c2.438-4.432,5.111-8.627,8.027-12.594c8.989-12.225,23.593-19.025,38.736-18.07c19.617,1.24,39.392,4.607,58.601,10.141
					c3.415,0.984,6.106,3.623,7.152,7.02c2.589,8.398,3.958,17.418,3.802,26.824c-0.156,9.947-2.072,20.166-6.005,30.117
					c-2.57,6.521-6.107,12.799-8.262,15.848c-1.637,2.371-3.607,4.475-5.863,6.264c-2.662,2.113-5.615,3.715-8.803,4.781
					c-1.045,0.367-10.406,3.326-22.049,5.195c-8.115,1.322-16.701,2.043-25.469,2.043c-15.877,0-31.461-2.32-46.514-6.926
					c-5.926-1.564-9.92-6.822-9.92-12.801c0-2.768,0.85-5.33,2.305-7.451c0.08-0.117,0.072-0.271-0.02-0.379
					s-0.244-0.139-0.371-0.078c-2.213,1.063-4.184,2.443-5.807,3.986C66.248,104.849,69.617,96.456,78.986,90.298z M116.25,62.315
					c-0.311-3.043-1.678-5.869-4.711-5.869c-2.627,0-6.352,2.275-9.293,6.654c2.072,0.221,3.684,1.975,3.684,4.105
					c0,2.281-1.848,4.127-4.133,4.127c-1.078,0-2.061-0.418-2.795-1.096c-0.777,2.889-0.932,5.68-0.467,7.877
					c0.123,0.572,0.254,1.084,0.42,1.561c-1.857-0.158-3.836-0.18-5.746-0.076c0.24-1.629,0.527-3.246,0.895-4.85
					c1.127-4.924,2.492-9.078,5.059-13.301c4.371-7.18,10.234-10.916,14.291-10.916c4.41,0,6.393,4.088,6.838,8.518
					c0.355,3.521-0.199,7.5-1.572,11.5c-0.014,0.059-0.035,0.107-0.057,0.158c-0.045,0.148-0.82,2.219-0.902,2.334
					c-0.627,1.689-2.588,5.932-5.242,10.031c-1.646-0.729-3.471-1.377-5.15-1.865c2.986-2.227,5.221-5.143,6.768-8.43
					C115.822,69.204,116.57,65.491,116.25,62.315z M65.863,140.726c-0.299-1.064-1.438-5.715-2.207-10.496
					c23.381,9.891,50.271,14.414,76.744,12.318c11.508-0.896,22.865-2.99,33.896-6.234c0.008,0,0.008,0,0.008,0l0.035-0.035
					l0.006-0.008c4.6-1.129,9.244-3.352,13.293-6.555c3.186-2.523,5.863-5.531,8.029-8.994c0.006-0.008,0.006-0.008,0.006-0.008
					c8.007-12.584,12.792-26.863,14.059-41.473c1.03-11.861-0.229-23.391-3.43-34.15c-1.461-5.287-5.249-9.482-10.19-11.49
					c-2.601-1.025-11.527-3.219-13.359-3.66c-26.089-6.275-52.979-8.803-79.896-7.4c6.922-4.992,14.703-8.961,23.111-11.623
					c9.33-2.957,19.127-4.316,28.858-4.316c21.371,0,41.536,6.844,58.009,18.709c6.225,4.482,10.095,7.904,13.828,12.734
					c5.193,6.713,11.498,17.662,14.612,28.043c-11.848,2.748-19.518,16.758-22.672,28.588c-1.422,5.359-2.078,10.525-2.027,15.266
					c0.066,7.453,1.965,15.934,7.529,20.857c-10.676,8.818-32.645,16.813-46.109,20.188c-7.094,1.795-14.297,3.127-21.555,3.979
					c-11.414,1.365-22.926,1.557-34.236,0.57c-2.891-0.25-5.771-0.57-8.646-0.967C96.418,152.212,80.008,147.255,65.863,140.726z
					 M67.238,200.649c-0.4-0.168-0.662-0.559-0.666-0.994c-0.004-0.434,0.252-0.83,0.65-1.004c3.166-1.391,4.838-2.924,7.385-5.711
					c-7.964,0-12.314-1.252-17.451-3.41c-3.84-1.623-7.321-3.939-10.281-6.813c-0.308-0.299-0.41-0.75-0.264-1.154
					c0.148-0.402,0.519-0.68,0.947-0.709c4.002-0.277,11.763-0.928,13.186-1.994c-11.357-2.5-20.615-11.096-24.508-21.34
					c-1.105-2.912-1.634-5.398-1.879-7.08c-0.062-0.418,0.127-0.836,0.481-1.066c0.354-0.232,0.812-0.236,1.171-0.012
					c3.488,2.184,11.136,6.744,20.4,11.055c11.5,5.348,24.473,9.613,25.186,9.613c0.075,0.023,0.639,0.191,1.395,0.414
					c-1.848,5.18-2.787,10.623-2.787,16.039c0,5.961,1.155,11.804,3.306,17.246C78.009,203.56,72.379,202.809,67.238,200.649z
					 M135.141,254.048c0.65-1.775,1.566-3.574,2.32-4.785c0.063-0.102,0.178-0.156,0.295-0.137s0.213,0.105,0.24,0.221
					c1.105,4.598,4.166,10.619,8.906,15.059c1.9,1.863,4.57,3.834,7.402,5.301c0.092,0.049,0.15,0.143,0.158,0.244
					c0.006,0.102-0.043,0.203-0.129,0.26c-0.4,0.275-0.813,0.541-1.23,0.793c-0.74,0.459-2.391,1.447-3.246,1.701
					c-2.727,0.805-4.334-1.141-4.908-1.557c0.002-0.008-0.002-0.014-0.002-0.014c-1.244-1.096-2.703-2.607-3.645-3.645
					c-0.092-0.104-0.242-0.127-0.363-0.059c-0.119,0.068-0.176,0.211-0.133,0.342c1.473,4.658,2.316,4.521,1.814,6.094
					c-0.311,0.971-1.113,1.627-2.047,1.805c-0.645,0.127-2.115,0.313-3.518,0.398c-0.113,0.006-0.221-0.053-0.275-0.15
					c-2.717-4.906-3.869-10.822-2.963-16.727c-4.443-1.92-8.471-5.156-11.367-9.42c-3.357-4.953-4.773-10.604-4.501-16.095
					c2.684,0.921,5.403,1.694,8.149,2.316C125.383,243.086,128.753,250.241,135.141,254.048z M181.943,255.517
					c-0.082-1.891,0.076-3.902,0.309-5.314c0.021-0.115,0.111-0.207,0.221-0.232c0.115-0.031,0.24,0.012,0.307,0.111
					c4.705,6.467,13.174,11.727,22.859,12.566c0.105,0.008,0.195,0.068,0.242,0.166c0.039,0.09,0.037,0.199-0.023,0.289
					c-0.609,0.945-2.297,3.303-3.182,4.01c-2.205,1.793-4.436,0.611-5.123,0.443l-0.008,0.008c-0.006-0.01-0.006-0.016-0.006-0.016
					c-1.572-0.543-3.498-1.373-4.76-1.979c-0.123-0.055-0.273-0.02-0.357,0.088c-0.088,0.107-0.08,0.264,0.006,0.369
					c3.145,3.738,3.873,3.287,4.008,4.932c0.18,2.027-1.604,2.854-4.293,4.166c-0.107,0.053-0.227,0.035-0.316-0.031
					c-4.389-3.494-7.717-8.514-9.139-14.32c-4.84-0.076-9.93-1.414-14.289-4.16c-4.783-3.018-9.293-8.896-11.316-13.699
					c-1.541-3.684-2.248-5.076-2.877-8.715c-0.27-2.58,1.586-4.891,4.17-5.168c2.338-0.25,4.826,1.219,5.18,4.508
					c0.205,2.854,0.906,5.51,1.824,8.023C167.721,248.042,174.814,254.479,181.943,255.517z M253.164,141.876
					c-0.949,5.371-2.692,11.803-4.943,16.186c-2.889,5.635-7.305,10.416-12.789,13.756c-8.154,4.99-13.752,5.441-17.957,6.492
					c1.477,1.082,7.064,2.529,13.037,3.1c0.423,0.039,0.783,0.322,0.924,0.723c0.14,0.4,0.034,0.846-0.271,1.141
					c-3.213,3.102-10.752,9.037-23.053,9.254c-3.672,0.127-6.773,0.156-11.704-1.096c1.477,2.068,5.821,4.832,8.905,6.578
					c0.383,0.217,0.598,0.645,0.543,1.082c-0.055,0.436-0.367,0.797-0.793,0.914c-2.696,0.734-5.863,1.18-9.203,1.18
					c-7.737,0-12.182-1.406-15.264-2.227c1.639,1.936,6.938,6.895,17.806,6.895c1.148,0,2.308-0.074,3.47-0.182
					c5.349,3.492,10.647,6.003,22.061,6.582c-3.471,2.746-7.98,4.236-12.723,3.891c-0.922-0.07-2.648-0.395-4.367-0.93
					c-0.297-0.09-0.615,0.037-0.768,0.307c-0.154,0.268-0.1,0.605,0.131,0.814c2.998,2.701,6.732,4.727,9.297,5.508
					c-4.461,1.471-11.234,0.742-15.9-1.959c-0.219-0.127-0.494-0.088-0.668,0.092c-0.176,0.18-0.207,0.457-0.074,0.672
					c1.75,2.826,4.432,5.537,6.025,6.865c-4.876,0.641-11.089-2.527-14.465-7.76c0.799-1.479,1.361-3.096,1.607-4.883
					c0.037-0.273-0.1-0.543-0.344-0.674c-0.242-0.133-0.543-0.1-0.752,0.08c-7.025,6.086-15.013,10.617-23.441,13.565
					c-2.085-3.044-5.752-4.925-9.725-4.499c-4.576,0.494-8.145,3.887-9.068,8.154c-0.017,0.078-0.025,0.156-0.04,0.234
					c-2.925,0.205-5.856,0.232-8.778,0.078c-11.693-0.584-23.049-3.994-33.092-9.863c-0.006,0-0.006-0.008-0.006-0.008
					c-8.615-5.078-14.436-12.273-17.707-20.551c-1.875-4.787-2.854-9.873-2.854-15.027c0-10.363,3.951-20.881,11.911-28.906
					c11.102,2.487,22.909,3.982,34.847,4.225h0.008c12.122,0.244,24.198-0.797,36.039-3.034c1.837,2.682,4.087,4.924,6.756,6.782
					c6.131,4.184,13.428,5.455,20.176,4.014c4.855-0.99,18.064-6.457,26.246-10.566c10.227-5.109,20.008-11.146,29.238-18.057
					c0.357-0.268,0.842-0.289,1.222-0.057C253.043,140.995,253.242,141.437,253.164,141.876z"/>
				<path fill="#001643" d="M100.512,121.392c0.791,0.037,1.568-0.33,1.977-0.988l0.01,0.006c2.227-3.232,5.76-5.523,9.986-6.143
					c-0.703,2.709-1.742,4.639-3.74,6.791c-0.652,0.768-0.514,1.973,0.314,2.703c0.396,0.355,0.896,0.563,1.475,0.533
					c6.184-0.201,11.354-1.795,15.486-4.004c9.014-4.822,11.781-13.881,8.783-20.557c-4.35-9.684-17.754-11.49-29.123,1.24
					c-4.574,5.109-7.256,11.857-7.75,17.568C97.838,119.962,99.014,121.319,100.512,121.392z M114.529,120.097
					c1.639-2.867,2.121-5.596,2.158-6.305c1.775-0.186,3.514-0.566,5.178-1.131c2.877-0.973,5.469-2.467,7.705-4.445
					C128.225,115.88,122.148,118.706,114.529,120.097z M117.641,96.897c7.541-3.518,12.266,1.533,11.445,4.629
					c-1.232,4.652-7.469,7.715-11.979,8.416c-2.891,0.465-8.543-0.342-14.318,4.299C105.629,104.69,112.65,99.222,117.641,96.897z"
					/>
				<path fill="#001643" d="M139.006,91.345l0.008,0.006c1.771-0.547,3.572-0.98,5.408-1.295c8.146-1.467,17.215-0.402,25.377,3.424
					c1.494,0.697,2.953,1.492,4.371,2.369c1.711,1.016,3.158-1.582,1.643-2.504v-0.008c-1.379-1.092-2.725-2.029-4-2.811
					c3.551-5.5,5.096-9.686,5.445-10.398c0.037-0.092,0.988-2.455,0.988-2.553c1.658-4.684,2.313-9.375,1.893-13.566
					c-0.262-2.609-0.926-4.889-1.963-6.736v-0.01c-2.025-3.631-5.326-5.402-8.889-5.402c-2.15,0-4.412,0.643-6.654,1.824
					c-4.051,2.127-8.02,6.004-11.08,11.037c-3.895,6.238-6.004,14.906-6.803,21.855c-2.857,0.568-6.129,1.633-6.818,1.971h-0.008
					c-0.98,0.336-1.373,1.746-0.463,2.533C137.904,91.466,138.5,91.55,139.006,91.345z M149.938,80.114
					c1.164-5.094,2.574-9.213,5.061-13.301c4.369-7.18,10.232-10.916,14.289-10.916c4.41,0,6.393,4.088,6.838,8.518
					c0.355,3.523-0.199,7.502-1.572,11.5c-0.031,0.123-0.877,2.377-0.961,2.49c-0.631,1.709-2.627,6.023-5.322,10.162
					c-1.268-0.656-4.02-1.404-5.416-1.729c3.166-2.256,5.508-5.279,7.117-8.695c1.686-3.574,2.434-7.287,2.113-10.461
					c-0.311-3.045-1.68-5.873-4.711-5.873c-2.627,0-6.354,2.277-9.293,6.654c2.07,0.223,3.684,1.977,3.684,4.107
					c0,2.279-1.85,4.129-4.131,4.129c-1.086,0-2.07-0.422-2.809-1.105c-1.158,4.313-0.777,8.072,0.266,10.178
					c-1.951-0.078-3.889-0.059-6.199,0.178C149.146,83.985,149.496,82.044,149.938,80.114z"/>
			</g>
		</g>
	</g>
</g>
</svg>
